<svg width="92" height="85" viewBox="0 0 92 85" fill="none" xmlns="http://www.w3.org/2000/svg">
<path d="M43 3L80.2391 23.5V64.5L43 85L5.76091 64.5V23.5L43 3Z" fill="#ECCEB3"/>
<path d="M26 6.5C26 10.0899 23.5376 13 20.5 13C17.4624 13 15 10.0899 15 6.5C15 2.91015 17.4624 0 20.5 0C23.5376 0 26 2.91015 26 6.5Z" fill="#8FD39E"/>
<path d="M79.3064 6.97238L78.8571 19.955L67.8385 13.0746L79.3064 6.97238Z" fill="#862882"/>
<path d="M0 70H11V80H0V70Z" fill="#F94C4C"/>
<path d="M86 66L92 73L86 80L80 73L86 66Z" fill="#911111"/>
<path d="M43.5 18C30.5162 18 20 28.74 20 42C20 55.26 30.5162 66 43.5 66C56.4838 66 67 55.26 67 42C67 28.74 56.4838 18 43.5 18ZM37.625 24H49.375V42H61.125L43.5 60L25.875 42H37.625V24Z" fill="#BD3636"/>
</svg>
