<svg width="96" height="97" viewBox="0 0 96 97" fill="none" xmlns="http://www.w3.org/2000/svg">
<path d="M44.5 7L87.3683 29.5V74.5L44.5 97L1.63174 74.5V29.5L44.5 7Z" fill="#EA9999"/>
<path d="M0 81H11V92H0V81Z" fill="#B75E5E"/>
<path d="M84.8422 9.1356L86.9666 23.1991L75 18.2993L84.8422 9.1356Z" fill="#9241D1"/>
<path d="M26 7.5C26 11.6421 22.6421 15 18.5 15C14.3579 15 11 11.6421 11 7.5C11 3.35786 14.3579 0 18.5 0C22.6421 0 26 3.35786 26 7.5Z" fill="#9FD7A1"/>
<path d="M88 81L96 89L88 97L80 89L88 81Z" fill="#AD3333"/>
<path d="M33.8343 23C33.3513 23 33 23.5084 33 24.2073V72.6918C33 73.3908 33.3513 73.8992 33.8343 73.8992H54.1657C54.6487 73.8992 55 73.3908 55 72.6918V24.2073C55 23.5084 54.6487 23 54.1657 23H33.8343ZM37.3912 29.3545H50.5649V61.1267H37.3912V29.3545ZM43.978 64.3039C45.2076 64.3039 46.1737 65.7019 46.1737 67.4812C46.1737 69.2604 45.2076 70.6584 43.978 70.6584C42.7485 70.6584 41.7824 69.2604 41.7824 67.4812C41.7824 65.7019 42.7485 64.3039 43.978 64.3039Z" fill="#CF5050"/>
</svg>
