<svg width="77" height="86" viewBox="0 0 77 86" fill="none" xmlns="http://www.w3.org/2000/svg">
<rect width="77" height="86" fill="#F5F5F5"/>
<path d="M35.3703 0.39338L76.8951 26.0376L76.8919 61.188L41.1956 85.9988L1.12152 61.6564L0.901357 26.0445L35.3703 0.39338Z" fill="#E83E8C" fill-opacity="0.57"/>
<path d="M48.7374 51.6608C49.3815 49.6349 49.8077 47.281 49.9701 45.0211C49.9737 44.962 49.9638 44.903 49.9409 44.8475C49.918 44.7921 49.8826 44.7415 49.8371 44.6988C49.7915 44.6561 49.7366 44.6223 49.6759 44.5995C49.6152 44.5766 49.5498 44.5652 49.484 44.566H41.7388C41.6754 44.5655 41.6125 44.5762 41.5537 44.5975C41.4949 44.6188 41.4413 44.6503 41.3961 44.6902C41.3508 44.7301 41.3148 44.7776 41.29 44.83C41.2652 44.8824 41.2521 44.9387 41.2516 44.9956V50.4081C41.2529 50.5174 41.3001 50.6222 41.3838 50.7017C41.4674 50.7811 41.5813 50.8294 41.7028 50.8367C43.8855 50.9951 46.0421 51.369 48.1335 51.9515C48.2565 51.9847 48.3892 51.9728 48.5024 51.9183C48.6156 51.8638 48.7001 51.7712 48.7374 51.6608V51.6608Z" fill="black"/>
<path d="M46.8659 54.873C45.2066 54.438 43.5065 54.1402 41.7867 53.9834C41.7203 53.9767 41.6531 53.9825 41.5893 54.0004C41.5255 54.0184 41.4665 54.048 41.4162 54.0875C41.3659 54.127 41.3252 54.1755 41.2969 54.2298C41.2686 54.2842 41.2531 54.3432 41.2516 54.4032V60.7885C41.2542 60.8647 41.2789 60.9389 41.3233 61.0039C41.3677 61.0688 41.4302 61.1222 41.5046 61.1588C41.5791 61.1954 41.6629 61.2139 41.7477 61.2125C41.8326 61.211 41.9155 61.1897 41.9884 61.1507C43.7214 60.2434 45.1492 58.7195 46.4398 56.7043C46.6512 56.3754 46.9727 55.8087 47.1668 55.4622C47.1969 55.4065 47.2129 55.3455 47.2137 55.2835C47.2144 55.2216 47.1999 55.1602 47.1711 55.1039C47.1424 55.0476 47.1001 54.9977 47.0473 54.9578C46.9946 54.9179 46.9326 54.8889 46.8659 54.873V54.873Z" fill="black"/>
<path d="M37.2427 54.001C35.5251 54.1477 33.8262 54.4367 32.1679 54.8642C31.8801 54.9386 31.7591 55.2949 31.8899 55.5288C32.085 55.8772 32.3259 56.3226 32.5319 56.6553C33.9489 58.9064 35.4574 60.3256 37.0269 61.1507C37.0997 61.1897 37.1827 61.211 37.2676 61.2125C37.3524 61.2139 37.4362 61.1954 37.5106 61.1588C37.5851 61.1222 37.6476 61.0688 37.692 61.0039C37.7364 60.9389 37.7611 60.8647 37.7637 60.7885V54.4003C37.7632 54.342 37.7487 54.2845 37.7213 54.2316C37.6938 54.1787 37.6541 54.1318 37.6047 54.0939C37.5553 54.0561 37.4974 54.0282 37.4349 54.0121C37.3725 53.9961 37.3069 53.9923 37.2427 54.001V54.001Z" fill="black"/>
<path d="M37.2765 44.566H29.5313C29.4655 44.5652 29.4003 44.5766 29.3396 44.5994C29.279 44.6222 29.2242 44.6559 29.1786 44.6985C29.1331 44.741 29.0977 44.7915 29.0747 44.8469C29.0518 44.9022 29.0417 44.9611 29.0451 45.0201C29.2065 47.2771 29.6304 49.6358 30.2724 51.6599C30.2906 51.7152 30.3209 51.7668 30.3615 51.8117C30.4021 51.8565 30.4521 51.8936 30.5088 51.9209C30.5655 51.9482 30.6276 51.9652 30.6916 51.9708C30.7556 51.9763 30.8202 51.9705 30.8817 51.9535C32.973 51.3709 35.1298 50.998 37.3125 50.8416C37.4341 50.8345 37.5483 50.7864 37.6322 50.7069C37.716 50.6274 37.7634 50.5224 37.7648 50.4129V44.9966C37.7644 44.9395 37.7514 44.883 37.7266 44.8305C37.7018 44.7779 37.6657 44.7302 37.6203 44.6902C37.5749 44.6502 37.5212 44.6186 37.4622 44.5973C37.4032 44.576 37.3401 44.5653 37.2765 44.566V44.566Z" fill="black"/>
<path d="M41.7889 32.0166C43.5075 31.872 45.2055 31.5723 46.8572 31.1221C46.9235 31.106 46.985 31.077 47.0375 31.0372C47.0899 30.9974 47.132 30.9477 47.1607 30.8917C47.1894 30.8356 47.204 30.7746 47.2036 30.713C47.2031 30.6513 47.1876 30.5905 47.158 30.5348C46.9629 30.1854 46.6926 29.6853 46.4855 29.3515C45.146 27.1983 43.6364 25.6959 41.9905 24.8493C41.9176 24.8106 41.8347 24.7895 41.75 24.7882C41.6653 24.7869 41.5816 24.8055 41.5073 24.842C41.433 24.8785 41.3705 24.9318 41.326 24.9966C41.2816 25.0614 41.2567 25.1354 41.2537 25.2115V31.5958C41.2553 31.6558 41.2707 31.7149 41.2991 31.7693C41.3274 31.8237 41.368 31.8722 41.4183 31.9118C41.4687 31.9513 41.5276 31.9811 41.5914 31.9991C41.6552 32.0172 41.7224 32.0231 41.7889 32.0166V32.0166Z" fill="black"/>
<path d="M41.7388 41.434H49.484C49.5493 41.435 49.614 41.424 49.6744 41.4017C49.7347 41.3793 49.7894 41.3462 49.8349 41.3042C49.8804 41.2622 49.9159 41.2123 49.9392 41.1575C49.9624 41.1028 49.973 41.0443 49.9701 40.9858C49.8088 38.7572 49.3957 36.3074 48.7537 34.3088C48.735 34.2539 48.7043 34.2028 48.6635 34.1585C48.6226 34.1142 48.5725 34.0776 48.5159 34.0508C48.4593 34.024 48.3973 34.0075 48.3336 34.0022C48.2698 33.9969 48.2056 34.003 48.1444 34.0201C46.0735 34.5819 43.9165 35.0409 41.7039 35.1946C41.583 35.2007 41.4691 35.2478 41.3852 35.3262C41.3013 35.4046 41.2536 35.5087 41.2516 35.6174V41.0112C41.2539 41.1253 41.3064 41.2338 41.3978 41.3131C41.4891 41.3924 41.6118 41.4359 41.7388 41.434V41.434Z" fill="black"/>
<path d="M37.0269 24.8503C35.3462 25.6891 33.8475 27.2414 32.5068 29.3887C32.2987 29.7225 32.0501 30.1825 31.8529 30.5309C31.8235 30.5866 31.8081 30.6474 31.8078 30.709C31.8074 30.7706 31.8221 30.8315 31.8508 30.8875C31.8794 30.9435 31.9214 30.9931 31.9738 31.033C32.0261 31.0728 32.0875 31.1019 32.1537 31.1181C33.8047 31.5767 35.505 31.8775 37.2264 32.0156C37.2927 32.0222 37.3599 32.0162 37.4236 31.9982C37.4874 31.9803 37.5462 31.9506 37.5965 31.9111C37.6468 31.8717 37.6875 31.8233 37.7159 31.769C37.7443 31.7147 37.7598 31.6557 37.7615 31.5958V25.2124C37.7581 25.1368 37.7329 25.0632 37.6885 24.9989C37.6441 24.9346 37.5819 24.8816 37.508 24.8452C37.4341 24.8087 37.351 24.7901 37.2667 24.791C37.1824 24.7919 37.0998 24.8123 37.0269 24.8503V24.8503Z" fill="black"/>
<path d="M37.3114 35.1956C35.0988 35.0439 32.9396 34.5848 30.8708 34.0211C30.8097 34.004 30.7454 33.9979 30.6817 34.0032C30.6179 34.0084 30.556 34.025 30.4994 34.0518C30.4428 34.0786 30.3926 34.1152 30.3518 34.1595C30.311 34.2038 30.2803 34.2548 30.2615 34.3098C29.6195 36.3084 29.2065 38.7582 29.0451 40.9867C29.0423 41.0453 29.0528 41.1037 29.0761 41.1585C29.0994 41.2133 29.1348 41.2632 29.1804 41.3052C29.2259 41.3471 29.2805 41.3803 29.3409 41.4026C29.4012 41.425 29.466 41.436 29.5313 41.435H37.2765C37.3396 41.4359 37.4022 41.4256 37.4609 41.4048C37.5195 41.3839 37.573 41.3528 37.6182 41.3134C37.6635 41.2739 37.6996 41.2268 37.7246 41.1748C37.7496 41.1228 37.7628 41.0669 37.7637 41.0102V35.6184C37.7617 35.5096 37.7139 35.4056 37.63 35.3272C37.5461 35.2487 37.4323 35.2017 37.3114 35.1956Z" fill="black"/>
<path d="M56.7638 27.4978C54.5007 25.4455 51.8084 23.815 48.8415 22.7C45.8745 21.5849 42.6914 21.0072 39.4751 21.0001C36.2588 20.993 33.0726 21.5566 30.0996 22.6585C27.1265 23.7605 24.4253 25.3791 22.151 27.4213C19.8767 29.4635 18.0742 31.8891 16.847 34.5588C15.6198 37.2284 14.9922 40.0895 15.0001 42.9776C15.008 45.8658 15.6513 48.7241 16.8931 51.3882C18.1349 54.0524 19.9507 56.4701 22.2362 58.5022C24.4993 60.5545 27.1916 62.185 30.1585 63.3C33.1255 64.4151 36.3086 64.9928 39.5249 64.9999C42.7412 65.007 45.9274 64.4434 48.9004 63.3415C51.8735 62.2395 54.5747 60.6209 56.849 58.5787C59.1233 56.5365 60.9258 54.1109 62.153 51.4412C63.3802 48.7716 64.0078 45.9105 63.9999 43.0224C63.992 40.1342 63.3487 37.276 62.1069 34.6118C60.8651 31.9476 59.0493 29.5299 56.7638 27.4978V27.4978ZM30.8457 60.1132C30.3547 59.4939 29.9006 58.8516 29.4855 58.189C29.2675 57.8279 28.9579 57.2827 28.7519 56.9039C28.7047 56.8141 28.6371 56.7341 28.5535 56.669C28.4698 56.604 28.372 56.5554 28.2662 56.5262C28.1604 56.4971 28.049 56.4882 27.9392 56.5C27.8293 56.5117 27.7234 56.544 27.6282 56.5946C27.1595 56.8305 26.5382 57.1545 26.0881 57.4197C25.1441 56.7754 24.2825 56.0391 23.5191 55.2244C24.5748 54.5553 25.6825 53.9548 26.8336 53.4275C27.0364 53.3296 27.1355 53.218 27.0712 53.0183C26.2278 50.3972 25.7127 47.6998 25.5355 44.9761C25.5302 44.8672 25.4787 44.7642 25.3915 44.6883C25.3044 44.6124 25.1882 44.5693 25.0668 44.5679H18.8824C18.8298 44.5685 18.7788 44.5519 18.7387 44.5213C18.6987 44.4908 18.6723 44.4482 18.6644 44.4016C18.5959 43.937 18.5653 43.4686 18.5728 43C18.5654 42.5324 18.5967 42.0649 18.6666 41.6014C18.6745 41.5547 18.7009 41.5122 18.7409 41.4816C18.781 41.451 18.832 41.4345 18.8846 41.435H25.069C25.3186 41.435 25.5235 41.3058 25.5366 41.0797C25.7115 38.3674 26.2233 35.681 27.0625 33.0707C27.0938 32.9754 27.087 32.8734 27.0434 32.7821C26.9999 32.6908 26.9222 32.616 26.8238 32.5706C25.6974 32.0523 24.6109 31.467 23.5714 30.8186C24.3308 30.0041 25.1753 29.2569 26.0935 28.5871C26.5382 28.8494 27.1181 29.146 27.5824 29.3809C27.6847 29.4331 27.7979 29.4659 27.9149 29.4773C28.032 29.4887 28.1503 29.4783 28.2627 29.4469C28.3751 29.4156 28.4791 29.3638 28.5683 29.2949C28.6576 29.2259 28.7301 29.1413 28.7814 29.0462C28.9863 28.6674 29.2174 28.2456 29.4419 27.8834C29.8588 27.2126 30.315 26.5622 30.8087 25.9348C33.5264 24.7851 36.4958 24.1952 39.5 24.2083C42.6543 24.2083 45.5929 24.8934 48.2774 26.015C48.7514 26.6126 49.1881 27.2335 49.5854 27.8746C49.8677 28.3307 50.1674 28.8896 50.4203 29.374C50.4474 29.4256 50.486 29.4717 50.5337 29.5095C50.5813 29.5472 50.637 29.5758 50.6974 29.5936C50.7578 29.6114 50.8216 29.6179 50.8849 29.6128C50.9482 29.6077 51.0096 29.5911 51.0655 29.5639C51.6519 29.2791 52.2874 28.9512 52.8465 28.6214C53.7673 29.2977 54.6141 30.0515 55.3752 30.8725C54.3642 31.5021 53.3058 32.0682 52.2078 32.5667C52.1092 32.6121 52.0315 32.6871 51.9881 32.7786C51.9447 32.8702 51.9383 32.9725 51.9702 33.0678C52.823 35.6604 53.3298 38.3347 53.4798 41.0347C53.4856 41.143 53.5375 41.2451 53.6247 41.3202C53.7118 41.3952 53.8277 41.4373 53.9485 41.4379L60.1198 41.4311C60.1724 41.4306 60.2234 41.4471 60.2634 41.4777C60.3035 41.5082 60.3299 41.5508 60.3378 41.5975C60.4649 42.5277 60.4649 43.4684 60.3378 44.3986C60.3304 44.4456 60.3042 44.4887 60.2641 44.5196C60.224 44.5506 60.1727 44.5674 60.1198 44.567H53.943C53.8215 44.5681 53.7052 44.6111 53.618 44.687C53.5308 44.763 53.4793 44.8661 53.4743 44.9751C53.3046 47.67 52.7975 50.3392 51.9626 52.9322C51.931 53.0286 51.9375 53.1319 51.981 53.2244C52.0245 53.317 52.1023 53.3932 52.2013 53.4402C52.7462 53.6937 53.3533 53.9765 53.8765 54.2643C54.3997 54.552 54.9174 54.8593 55.4166 55.1784C54.6613 55.9955 53.822 56.7469 52.9097 57.4227C52.6438 57.2651 52.3277 57.086 52.0552 56.9392C51.8677 56.8413 51.5222 56.6681 51.3304 56.5712C50.914 56.3617 50.4715 56.5183 50.2633 56.9039C50.0551 57.2895 49.7369 57.8425 49.5145 58.2008C49.1048 58.8594 48.6554 59.4975 48.1684 60.1122C45.485 61.2407 42.6543 61.7917 39.5 61.7917C36.3457 61.7917 33.5303 61.2407 30.8457 60.1132V60.1132Z" fill="black"/>
</svg>
