<svg width="96" height="108" viewBox="0 0 96 108" fill="none" xmlns="http://www.w3.org/2000/svg">
<rect width="96" height="108" fill="#F5F5F5"/>
<g filter="url(#filter0_d_2_5)">
<path d="M48 0L91.3013 25V75L48 100L4.69873 75V25L48 0Z" fill="#F4ADE5"/>
</g>
<path d="M71.69 49.74C71.69 46.5948 71.0705 43.4805 69.8669 40.5747C68.6633 37.669 66.8992 35.0288 64.6752 32.8048C62.4512 30.5808 59.811 28.8167 56.9053 27.6131C53.9995 26.4095 50.8852 25.79 47.74 25.79C41.3881 25.79 35.2963 28.3133 30.8048 32.8048C26.3133 37.2963 23.79 43.3881 23.79 49.74C23.79 56.0919 26.3133 62.1837 30.8048 66.6752C35.2963 71.1667 41.3881 73.69 47.74 73.69C54.0919 73.69 60.1837 71.1667 64.6752 66.6752C69.1667 62.1837 71.69 56.0919 71.69 49.74V49.74ZM66.7324 47.345H59.715C59.32 41.7123 57.3901 36.2953 54.1347 31.6817C57.4792 32.8695 60.4281 34.963 62.6524 37.7287C64.8768 40.4944 66.2893 43.8236 66.7324 47.345V47.345ZM40.7466 52.135H54.925C54.3121 58.052 51.7901 63.6089 47.74 67.966C43.6926 63.6271 41.2285 58.049 40.7466 52.135V52.135ZM40.7466 47.345C41.3044 41.4577 43.7585 35.9106 47.74 31.538C51.8228 35.8637 54.3505 41.4247 54.925 47.345H40.7466ZM41.6088 31.6099C38.3362 36.249 36.3752 41.6849 35.9327 47.345H28.7477C29.2001 43.78 30.6459 40.4142 32.9201 37.6318C35.1943 34.8494 38.2052 32.7626 41.6088 31.6099V31.6099ZM28.7477 52.135H35.9327C36.3271 57.7902 38.2747 63.2269 41.5609 67.8462C38.1695 66.6878 35.171 64.6014 32.906 61.8242C30.641 59.0469 29.2003 55.6901 28.7477 52.135V52.135ZM54.0149 67.8222C57.2922 63.2015 59.2615 57.7818 59.715 52.135H66.7803C66.3273 55.6802 64.8919 59.028 62.636 61.8002C60.3802 64.5723 57.394 66.6582 54.0149 67.8222V67.8222Z" fill="#FFF1F5"/>
<defs>
<filter id="filter0_d_2_5" x="0.69873" y="0" width="94.6025" height="108" filterUnits="userSpaceOnUse" color-interpolation-filters="sRGB">
<feFlood flood-opacity="0" result="BackgroundImageFix"/>
<feColorMatrix in="SourceAlpha" type="matrix" values="0 0 0 0 0 0 0 0 0 0 0 0 0 0 0 0 0 0 127 0" result="hardAlpha"/>
<feOffset dy="4"/>
<feGaussianBlur stdDeviation="2"/>
<feComposite in2="hardAlpha" operator="out"/>
<feColorMatrix type="matrix" values="0 0 0 0 0 0 0 0 0 0 0 0 0 0 0 0 0 0 0.25 0"/>
<feBlend mode="normal" in2="BackgroundImageFix" result="effect1_dropShadow_2_5"/>
<feBlend mode="normal" in="SourceGraphic" in2="effect1_dropShadow_2_5" result="shape"/>
</filter>
</defs>
</svg>
